<svg id="Layer_1-2" xmlns="http://www.w3.org/2000/svg" width="96.667" height="84.039" viewBox="0 0 96.667 84.039">
  <path id="Path_76" data-name="Path 76" d="M200.113,11.213h13.195V41.9A16.8,16.8,0,0,1,196.552,58.66H161.43V11.213h13.195a12.848,12.848,0,0,1,25.487,0h0Zm-22.226.1a26.716,26.716,0,0,1,4.314.724A24.083,24.083,0,0,1,187.37,14a24.028,24.028,0,0,1,5.168-1.96,26.716,26.716,0,0,1,4.314-.724,9.605,9.605,0,0,0-18.964,0Z" transform="translate(-139.035)" fill="#414141" fill-rule="evenodd"/>
  <path id="Path_77" data-name="Path 77" d="M360.357,93.98h11.993a.173.173,0,0,1,.172.172v28.693a14.974,14.974,0,0,1-14.93,14.93H348.41V97.021a23.694,23.694,0,0,1,11.949-3.041Z" transform="translate(-300.075 -80.942)" fill="#4f9d4e" fill-rule="evenodd"/>
  <path id="Path_78" data-name="Path 78" d="M186.755,93.98H174.762a.173.173,0,0,0-.172.172v43.623H198.7V97.021A23.694,23.694,0,0,0,186.755,93.98Z" transform="translate(-150.369 -80.942)" fill="#60bb55" fill-rule="evenodd"/>
  <path id="Path_79" data-name="Path 79" d="M367.116,308.144a14.855,14.855,0,0,1-9.533,3.463H348.4v-15.8A20.712,20.712,0,0,1,367.116,308.144Z" transform="translate(-300.067 -254.772)" fill="#60bb55" fill-rule="evenodd"/>
  <path id="Path_80" data-name="Path 80" d="M203.31,311.607h20.128v-15.8h-.1A20.841,20.841,0,0,0,203.31,311.607Z" transform="translate(-175.105 -254.772)" fill="#84c567" fill-rule="evenodd"/>
  <path id="Path_81" data-name="Path 81" d="M191.558,135.9a12.215,12.215,0,0,1,11.254,7.479,12.2,12.2,0,1,1,6.322,15.885l-.6.6-4.818,4.818-1,1-1-1-4.818-4.818-.537-.537a12.2,12.2,0,1,1-4.8-23.422h0Zm12.683,19.439a12.182,12.182,0,0,1-1.43-2.515,12.2,12.2,0,0,1-1.4,2.472,7.469,7.469,0,0,1,2.829.042Z" transform="translate(-154.477 -117.047)" fill="#414141" fill-rule="evenodd"/>
  <circle id="Ellipse_4" data-name="Ellipse 4" cx="10.376" cy="10.376" r="10.376" transform="translate(49.211 20.679)" fill="#fff"/>
  <circle id="Ellipse_5" data-name="Ellipse 5" cx="10.376" cy="10.376" r="10.376" transform="translate(26.705 20.679)" fill="#fff"/>
  <path id="Path_82" data-name="Path 82" d="M234.8,176.58a6.553,6.553,0,1,1-5.688,3.291,3.212,3.212,0,1,0,5.331-3.281c.118-.007.236-.01.355-.01Z" transform="translate(-196.576 -152.083)" fill="#414141" fill-rule="evenodd"/>
  <path id="Path_83" data-name="Path 83" d="M378.938,176.58a6.553,6.553,0,1,1-5.688,3.291,3.212,3.212,0,1,0,5.331-3.281c.118-.007.236-.01.355-.01Z" transform="translate(-320.72 -152.083)" fill="#414141" fill-rule="evenodd"/>
  <path id="Path_84" data-name="Path 84" d="M347.71,285.12a6.382,6.382,0,0,1,4.818,2.254l-4.818,4.818Z" transform="translate(-299.472 -245.565)" fill="#ffc868" fill-rule="evenodd"/>
  <path id="Path_85" data-name="Path 85" d="M317.8,292.192l-4.818-4.818a6.387,6.387,0,0,1,4.818-2.254Z" transform="translate(-269.56 -245.565)" fill="#fcf5ae" fill-rule="evenodd"/>
  <path id="Path_86" data-name="Path 86" d="M14.983,463.1a3.219,3.219,0,0,0-2.411-1,3.588,3.588,0,0,0,0,7.164,3.311,3.311,0,0,0,3.375-3.582,3.778,3.778,0,0,0-.964-2.583h0Zm65.669-3.051h2.274V471.1h-.172a2.146,2.146,0,0,1-2.135-2.135v-8.92h.035ZM61.364,471.312a6.018,6.018,0,0,1-4.3-.724,5.533,5.533,0,0,1-2.72-3.375,5.811,5.811,0,0,1,4.03-7.2,5.854,5.854,0,0,1,7.3,6.337l-9.2-.035a3.514,3.514,0,0,0,4.237,2.721,5.045,5.045,0,0,0,2.135-1.654l1.86,1.378a4.59,4.59,0,0,1-3.341,2.548h0Zm1.756-7.06a2.664,2.664,0,0,0-1.48-1.791c-1.963-1.1-3.926-.172-4.822,1.791h6.3Zm31.274.655a2.642,2.642,0,0,0-1.034-2.17,3.652,3.652,0,0,0-2.342-.723,3.4,3.4,0,0,0-3.41,3.617,3.35,3.35,0,0,0,3.375,3.513c1.378,0,2.1-.792,2.893-1.791v2.859a7.61,7.61,0,0,1-1.31.827,4.451,4.451,0,0,1-1.756.309c-3.306,0-5.477-2.72-5.477-5.889a5.541,5.541,0,0,1,1.516-4,5.606,5.606,0,0,1,4.2-1.654c3.273,0,5.614,1.86,5.614,5.269v6.028h-.172a2.146,2.146,0,0,1-2.135-2.135v-4.065h.035Zm-11.606-6.165a1.25,1.25,0,0,1-1,.379,1.343,1.343,0,1,1,0-2.686,1.283,1.283,0,0,1,1.343,1.343,1.327,1.327,0,0,1-.344.964h0Zm-6.441,10.918a5.23,5.23,0,0,1-4.029,1.687,5.346,5.346,0,0,1-4.2-1.791,6.2,6.2,0,0,1-1.515-4.237,5.373,5.373,0,0,1,5.338-5.476,6.1,6.1,0,0,1,3.2.827v2.48a5.545,5.545,0,0,0-2.893-1.1,3.274,3.274,0,0,0-3.41,3.547,3.346,3.346,0,0,0,3.443,3.582,3.022,3.022,0,0,0,2.376-1.068,4.7,4.7,0,0,0,.929-3.169v-7.715a2.146,2.146,0,0,1,2.135-2.135H77.9v10.2a6.237,6.237,0,0,1-1.55,4.374h0Zm-24.763.1a5.157,5.157,0,0,1-3.789,1.619,6.181,6.181,0,0,1-3.2-.827v-2.446a5.543,5.543,0,0,0,2.893,1.1,3.273,3.273,0,0,0,3.41-3.547,3.327,3.327,0,0,0-3.445-3.582,2.982,2.982,0,0,0-2.342,1.034,4.684,4.684,0,0,0-.964,3.2V476h-.172a2.146,2.146,0,0,1-2.135-2.135v-7.921c0-3.341,2.067-6.062,5.58-6.062a5.372,5.372,0,0,1,4.237,1.791,6.136,6.136,0,0,1,1.515,4.237,5.278,5.278,0,0,1-1.584,3.858ZM37.472,463.1a3.219,3.219,0,0,0-2.411-1,3.588,3.588,0,1,0,3.375,3.582,3.778,3.778,0,0,0-.964-2.583h0Zm1.619,6.716a5.727,5.727,0,0,1-4.065,1.619A5.59,5.59,0,0,1,31,469.816a5.51,5.51,0,0,1-1.688-4.133,5.772,5.772,0,0,1,9.816-4.1,5.538,5.538,0,0,1,1.722,4.133,5.676,5.676,0,0,1-1.756,4.1h0Zm-11.778-6.992a12.221,12.221,0,0,1-.792,1.206,3.434,3.434,0,0,1-.585.62,2.986,2.986,0,0,1,2.17,3.238v3.306h-.172a2.146,2.146,0,0,1-2.135-2.135v-.964c0-1.068-.483-1.791-1.584-1.791H22.147v4.89h-.172a2.146,2.146,0,0,1-2.135-2.135V457.314a2.146,2.146,0,0,1,2.135-2.135h.172v8.955h.688a1.568,1.568,0,0,0,1.515-.724l1.928-3.238H28.9l-1.584,2.653h0Zm-10.678,6.992a5.723,5.723,0,0,1-4.063,1.619,5.59,5.59,0,0,1-4.03-1.619,5.51,5.51,0,0,1-1.688-4.133,5.654,5.654,0,0,1,5.752-5.752,5.675,5.675,0,0,1,4.065,1.654,5.538,5.538,0,0,1,1.722,4.133,5.816,5.816,0,0,1-1.756,4.1ZM3.341,471.228C1.1,471.228,0,469.713,0,467.577v-8.06a2.146,2.146,0,0,1,2.135-2.135h.172v2.755H6.165v2.2H2.307v5.477c0,.93.413,1.206,1.308,1.206H6.164v2.2H3.339Z" transform="translate(0 -391.956)" fill="#42b549" fill-rule="evenodd"/>
</svg>
