<svg xmlns="http://www.w3.org/2000/svg" width="62.667" height="92.691" viewBox="0 0 62.667 92.691">
  <g id="shopee-1" transform="translate(-9.611 -14.2)">
    <g id="Group_746" data-name="Group 746" transform="translate(9.611 14.2)">
      <path id="Path_71" data-name="Path 71" d="M9.9,424.58a.659.659,0,0,1,.731-1.1q.274.192.6.384a8.153,8.153,0,0,0,4.059,1.371,2.8,2.8,0,0,0,2.432-1.188c.037-.055.073-.091.073-.128a3.565,3.565,0,0,0,.347-.768,2.321,2.321,0,0,0-.091-1.572,3.2,3.2,0,0,0-1.371-1.444,7.405,7.405,0,0,0-1.737-.731,7.04,7.04,0,0,1-3.784-2.139,3.307,3.307,0,0,1,0-3.8,3.671,3.671,0,0,1,3.09-1.737,8.1,8.1,0,0,1,4.2.969.654.654,0,0,1-.585,1.17,6.741,6.741,0,0,0-3.51-.823,2.377,2.377,0,0,0-2.029,1.06,2.09,2.09,0,0,0-.091,2.395,5.788,5.788,0,0,0,3.071,1.664,7.846,7.846,0,0,1,2.048.878,4.534,4.534,0,0,1,1.883,2.048,3.541,3.541,0,0,1,.146,2.45,4.5,4.5,0,0,1-.494,1.1,1.173,1.173,0,0,0-.11.183,4.046,4.046,0,0,1-3.528,1.755,9.411,9.411,0,0,1-4.735-1.554A7.043,7.043,0,0,0,9.9,424.58Zm11.682-12.231a.659.659,0,0,1,1.316,0v13.584a.659.659,0,0,1-1.316,0Z" transform="translate(-9.611 -339.038)" fill="#ea501f"/>
      <path id="Path_72" data-name="Path 72" d="M31.645,95.976a.662.662,0,1,1-1.024-.841,6.777,6.777,0,0,1,3.254-2.3,4.19,4.19,0,0,1,2.267-.073,3.18,3.18,0,0,1,1.773,1.225,3.75,3.75,0,0,1,.658,2.23v4.863a.658.658,0,0,1-1.316,0V96.214a2.539,2.539,0,0,0-.4-1.481,1.922,1.922,0,0,0-1.042-.713,2.839,2.839,0,0,0-1.554.055A5.659,5.659,0,0,0,31.645,95.976Zm13.383-3.346a4.557,4.557,0,1,1-3.218,1.335A4.531,4.531,0,0,1,45.028,92.631Zm2.3,2.249a3.266,3.266,0,1,0,.951,2.3A3.262,3.262,0,0,0,47.331,94.879Zm4.113-1.591a.658.658,0,0,1,1.316,0v.823a1.1,1.1,0,0,1,.146-.146,4.552,4.552,0,1,1,0,6.435,1.1,1.1,0,0,0-.146-.146v5.978a.658.658,0,0,1-1.316,0Zm6.966,1.591a3.266,3.266,0,1,0,.951,2.3A3.262,3.262,0,0,0,58.41,94.879Zm8.446-2.249a4,4,0,0,1,2.889,1.207,4.435,4.435,0,0,1,1.1,1.9c.567,1.847-.512,1.773-.841,1.773H63.95a5.829,5.829,0,0,0,.293,1.207A2.784,2.784,0,0,0,65.266,100a3.158,3.158,0,0,0,1.719.439,6.688,6.688,0,0,0,2.541-.6.655.655,0,0,1,.512,1.207,8.387,8.387,0,0,1-3.035.695,4.244,4.244,0,0,1-2.432-.64,3.583,3.583,0,0,1-1.536-1.883,4.943,4.943,0,0,1,.932-5.375,3.9,3.9,0,0,1,2.889-1.207Zm1.974,2.139a2.781,2.781,0,0,0-3.949,0,3.372,3.372,0,0,0-.859,1.408h5.686a3.831,3.831,0,0,0-.878-1.408Zm8.008-2.139a4,4,0,0,1,2.889,1.207,4.435,4.435,0,0,1,1.1,1.9c.567,1.847-.512,1.773-.841,1.773H73.932a5.829,5.829,0,0,0,.293,1.207A2.784,2.784,0,0,0,75.248,100a3.158,3.158,0,0,0,1.719.439,6.688,6.688,0,0,0,2.541-.6.655.655,0,0,1,.512,1.207,8.387,8.387,0,0,1-3.035.695,4.244,4.244,0,0,1-2.432-.64,3.583,3.583,0,0,1-1.536-1.883,4.943,4.943,0,0,1,.932-5.375,3.9,3.9,0,0,1,2.889-1.207Zm1.974,2.139a2.781,2.781,0,0,0-3.949,0,3.372,3.372,0,0,0-.859,1.408h5.686a3.831,3.831,0,0,0-.878-1.408ZM23.235,33.2H37a29.826,29.826,0,0,1,3.583-12.085c2.468-4.278,5.978-6.911,9.946-6.911s7.459,2.651,9.946,6.911A29.738,29.738,0,0,1,64.06,33.2H77.808a2.893,2.893,0,0,1,2.962,2.962L78.009,74.678c-.347,4.827-3.382,7.587-7.788,7.587H30.841c-4.9,0-7.5-3.419-7.788-7.587l-2.779-38.5a2.919,2.919,0,0,1,2.962-2.98Zm17.2,0H60.586a26.019,26.019,0,0,0-3.108-10.366c-1.828-3.2-4.315-5.192-6.947-5.192-2.651,0-5.119,1.993-6.984,5.21A26.225,26.225,0,0,0,40.439,33.2Z" transform="translate(-18.32 -14.2)" fill="#ea501f"/>
    </g>
    <path id="Path_73" data-name="Path 73" d="M128.367,190.023a1.394,1.394,0,1,1,1.572-2.3c.4.274.823.548,1.28.823a17.325,17.325,0,0,0,8.648,2.925,5.937,5.937,0,0,0,5.192-2.541c.073-.128.146-.2.165-.256a6.876,6.876,0,0,0,.731-1.645,4.943,4.943,0,0,0-.183-3.364,7.061,7.061,0,0,0-2.925-3.09,14.21,14.21,0,0,0-3.693-1.536c-3.766-1.06-6.545-2.56-8.044-4.571-1.645-2.212-1.773-4.881-.018-8.117,1.17-2.139,3.565-3.474,6.6-3.711a17.245,17.245,0,0,1,8.958,2.048,1.4,1.4,0,0,1-1.28,2.486,14.367,14.367,0,0,0-7.477-1.755c-2.066.165-3.638.969-4.333,2.249-1.17,2.139-1.152,3.821-.2,5.1,1.1,1.481,3.382,2.633,6.563,3.528a18.1,18.1,0,0,1,4.388,1.847,9.729,9.729,0,0,1,4.04,4.369,7.745,7.745,0,0,1,.329,5.247,9.106,9.106,0,0,1-1.042,2.34c-.11.165-.183.292-.238.384a8.665,8.665,0,0,1-7.5,3.766,19.987,19.987,0,0,1-10.11-3.327A16.306,16.306,0,0,1,128.367,190.023Z" transform="translate(-96.545 -121.269)" fill="#fff"/>
  </g>
</svg>
